#N canvas 253 217 486 389 10;
#X floatatom 203 131 5 0 0 0 - - -;
#X obj 187 37 notein;
#X obj 105 319 ctlout;
#X msg 121 254 43;
#X obj 262 314 noteout;
#X obj 182 201 makenote;
#X floatatom 227 158 5 0 0 0 - - -;
#X floatatom 105 130 5 0 0 0 - - -;
#N canvas 653 402 662 436 map 0;
#X obj 192 29 inlet;
#X obj 192 59 -;
#X msg 251 44 60;
#N canvas 422 28 340 261 abs 0;
#X obj 203 55 inlet;
#X obj 197 230 outlet;
#X floatatom 119 70 5 0 0 0 - - -;
#X obj 120 215 *;
#X obj 236 132 tgl 15 0 empty empty empty 17 7 0 10 -262144 -1 -1 0
1;
#X obj 170 132 tgl 15 0 empty empty empty 17 7 0 10 -262144 -1 -1 0
1;
#X obj 196 165 +;
#X floatatom 280 179 5 0 0 0 - - -;
#X floatatom 280 215 5 0 0 0 - - -;
#X obj 196 200 -;
#X msg 211 186 1;
#X obj 203 95 > 0;
#X text 105 30 returns input absolute value;
#X connect 0 0 2 0;
#X connect 0 0 11 0;
#X connect 2 0 3 0;
#X connect 3 0 1 0;
#X connect 4 0 6 1;
#X connect 5 0 6 0;
#X connect 6 0 7 0;
#X connect 6 0 9 0;
#X connect 6 0 10 0;
#X connect 9 0 3 1;
#X connect 9 0 8 0;
#X connect 10 0 9 1;
#X connect 11 0 4 0;
#X connect 11 0 5 0;
#X restore 191 176 pd abs;
#X obj 134 251 *;
#X msg 107 210 2.666;
#X obj 176 331 *;
#X floatatom 484 74 5 0 0 0 - - -;
#X floatatom 134 317 5 0 0 0 - - -;
#X floatatom 191 265 5 0 0 0 - - -;
#N canvas 776 52 257 192 app 0;
#X obj 37 37 inlet;
#X obj 104 155 outlet;
#N canvas 106 49 298 237 sign 0;
#X obj 130 25 inlet;
#X obj 123 195 outlet;
#X obj 163 92 tgl 15 0 empty empty empty 17 7 0 10 -262144 -1 -1 0
1;
#X obj 97 92 tgl 15 0 empty empty empty 17 7 0 10 -262144 -1 -1 0 1
;
#X obj 123 125 +;
#X floatatom 207 139 5 0 0 0 - - -;
#X obj 123 160 -;
#X msg 138 146 1;
#X obj 130 55 > 0;
#X text 17 7 returns sign of input value;
#X connect 0 0 8 0;
#X connect 2 0 4 1;
#X connect 3 0 4 0;
#X connect 4 0 5 0;
#X connect 4 0 6 0;
#X connect 4 0 7 0;
#X connect 6 0 1 0;
#X connect 7 0 6 1;
#X connect 8 0 2 0;
#X connect 8 0 3 0;
#X restore 119 53 pd sign;
#X obj 104 115 +;
#X obj 119 83 *;
#X msg 196 68 0.5;
#X obj 104 135 int;
#X text 90 19 approximates Value;
#X connect 0 0 2 0;
#X connect 0 0 3 0;
#X connect 2 0 4 0;
#X connect 2 0 5 0;
#X connect 3 0 6 0;
#X connect 4 0 3 1;
#X connect 5 0 4 1;
#X connect 6 0 1 0;
#X restore 134 279 pd app;
#X obj 191 223 < 13;
#X obj 363 191 > 12 and < 25;
#X floatatom 410 233 5 0 0 0 - - -;
#X obj 263 407 outlet;
#X obj 263 346 +;
#X obj 319 225 *;
#N canvas 776 52 257 192 app 0;
#X obj 37 37 inlet;
#X obj 104 155 outlet;
#N canvas 106 49 298 237 sign 0;
#X obj 130 25 inlet;
#X obj 123 195 outlet;
#X obj 163 92 tgl 15 0 empty empty empty 17 7 0 10 -262144 -1 -1 0
1;
#X obj 97 92 tgl 15 0 empty empty empty 17 7 0 10 -262144 -1 -1 0 1
;
#X obj 123 125 +;
#X floatatom 207 139 5 0 0 0 - - -;
#X obj 123 160 -;
#X msg 138 146 1;
#X obj 130 55 > 0;
#X text 17 7 returns sign of input value;
#X connect 0 0 8 0;
#X connect 2 0 4 1;
#X connect 3 0 4 0;
#X connect 4 0 5 0;
#X connect 4 0 6 0;
#X connect 4 0 7 0;
#X connect 6 0 1 0;
#X connect 7 0 6 1;
#X connect 8 0 2 0;
#X connect 8 0 3 0;
#X restore 119 53 pd sign;
#X obj 104 115 +;
#X obj 119 83 *;
#X msg 196 68 0.5;
#X obj 104 135 int;
#X text 90 19 approximates Value;
#X connect 0 0 2 0;
#X connect 0 0 3 0;
#X connect 2 0 4 0;
#X connect 2 0 5 0;
#X connect 3 0 6 0;
#X connect 4 0 3 1;
#X connect 5 0 4 1;
#X connect 6 0 1 0;
#X restore 319 253 pd app;
#X floatatom 319 286 5 0 0 0 - - -;
#X obj 395 300 *;
#X floatatom 176 351 5 0 0 0 - - -;
#X floatatom 263 366 5 0 0 0 - - -;
#X msg 253 210 1.333;
#X floatatom 319 192 5 0 0 0 - - -;
#X obj 480 330 *;
#X obj 433 315 +;
#X obj 518 216 *;
#X msg 574 201 32;
#N canvas 0 22 282 249 sign 0;
#X obj 130 25 inlet;
#X obj 123 195 outlet;
#X obj 163 92 tgl 15 0 empty empty empty 17 7 0 10 -262144 -1 -1 0
1;
#X obj 97 92 tgl 15 0 empty empty empty 17 7 0 10 -262144 -1 -1 0 1
;
#X obj 123 125 +;
#X floatatom 207 139 5 0 0 0 - - -;
#X obj 123 160 -;
#X msg 138 146 1;
#X obj 130 55 > 0;
#X text 17 7 returns sign of input value;
#X connect 0 0 8 0;
#X connect 2 0 4 1;
#X connect 3 0 4 0;
#X connect 4 0 5 0;
#X connect 4 0 6 0;
#X connect 4 0 7 0;
#X connect 6 0 1 0;
#X connect 7 0 6 1;
#X connect 8 0 2 0;
#X connect 8 0 3 0;
#X restore 518 127 pd sign;
#X obj 263 385 + 64;
#X floatatom 518 236 5 0 0 0 - - -;
#X obj 319 172 +;
#X obj 334 142 *;
#X msg 294 127 12, f 4;
#X floatatom 389 157 5 0 0 0 - - -;
#X floatatom 518 147 5 0 0 0 - - -;
#X connect 0 0 1 0;
#X connect 0 0 2 0;
#X connect 1 0 3 0;
#X connect 1 0 4 1;
#X connect 1 0 5 0;
#X connect 1 0 7 0;
#X connect 1 0 22 0;
#X connect 1 0 28 0;
#X connect 1 0 31 0;
#X connect 1 0 33 0;
#X connect 2 0 1 1;
#X connect 3 0 11 0;
#X connect 3 0 12 0;
#X connect 4 0 10 0;
#X connect 5 0 4 0;
#X connect 6 0 20 0;
#X connect 6 0 15 1;
#X connect 8 0 6 0;
#X connect 9 0 6 1;
#X connect 10 0 8 0;
#X connect 11 0 9 0;
#X connect 12 0 13 0;
#X connect 13 0 19 1;
#X connect 13 0 24 1;
#X connect 15 0 21 0;
#X connect 16 0 17 0;
#X connect 17 0 18 0;
#X connect 18 0 19 0;
#X connect 19 0 25 0;
#X connect 21 0 29 0;
#X connect 22 0 16 1;
#X connect 23 0 16 0;
#X connect 24 0 15 0;
#X connect 25 0 24 0;
#X connect 26 0 25 1;
#X connect 26 0 30 0;
#X connect 27 0 26 1;
#X connect 28 0 26 0;
#X connect 28 0 35 0;
#X connect 28 0 32 1;
#X connect 29 0 14 0;
#X connect 31 0 23 0;
#X connect 32 0 31 1;
#X connect 32 0 34 0;
#X connect 33 0 32 0;
#X restore 105 201 pd map;
#X obj 121 230 loadbang;
#X text 326 334 patch brought to you by Athoms_G;
#X obj 267 107 cnv 15 60 60 empty empty empty 20 12 0 14 -258113 -66577
0;
#X floatatom 281 132 5 0 10 0 - - -;
#X text 267 91 SAMPLE SELECTOR;
#X connect 0 0 5 1;
#X connect 1 0 7 0;
#X connect 1 1 0 0;
#X connect 1 2 12 0;
#X connect 3 0 2 1;
#X connect 5 0 4 0;
#X connect 5 1 4 1;
#X connect 6 0 5 2;
#X connect 7 0 5 0;
#X connect 7 0 8 0;
#X connect 8 0 2 0;
#X connect 9 0 3 0;
#X connect 12 0 4 2;
#X connect 12 0 2 2;
